<?xml version="1.0" encoding="utf-8"?>
<!-- Generator: Adobe Illustrator 19.2.1, SVG Export Plug-In . SVG Version: 6.00 Build 0)  -->
<svg version="1.1" id="Слой_1" xmlns="http://www.w3.org/2000/svg" xmlns:xlink="http://www.w3.org/1999/xlink" x="0px" y="0px"
	 viewBox="0 0 16 16" style="enable-background:new 0 0 16 16;" xml:space="preserve">
<style type="text/css">
	.st0{fill:#FFFFFF;stroke:#808080;stroke-miterlimit:10;}
</style>
<circle class="st0" cx="7.9" cy="8" r="7"/>
<g>
	<path d="M8.5,9.7H7.3c0-0.2,0-0.3,0-0.3c0-0.4,0.1-0.7,0.2-1c0.1-0.3,0.4-0.6,0.8-0.9S8.9,7,9,6.9c0.1-0.2,0.2-0.3,0.2-0.5
		c0-0.3-0.1-0.5-0.3-0.7C8.6,5.5,8.3,5.4,8,5.4c-0.3,0-0.6,0.1-0.9,0.3C6.9,5.9,6.7,6.2,6.6,6.6L5.4,6.4c0-0.6,0.3-1.1,0.7-1.5
		s1.1-0.6,1.8-0.6c0.8,0,1.4,0.2,1.9,0.6c0.5,0.4,0.7,0.9,0.7,1.4c0,0.3-0.1,0.6-0.3,0.9c-0.2,0.3-0.5,0.6-1.1,1.1
		C8.8,8.6,8.7,8.8,8.6,9C8.5,9.1,8.5,9.4,8.5,9.7z M7.3,11.6v-1.4h1.4v1.4H7.3z"/>
</g>
</svg>
